<svg width="26" height="21" viewBox="0 0 26 21" xmlns="http://www.w3.org/2000/svg">
    <path d="M22.451 3.285a5.228 5.228 0 0 0 2.23-2.901 9.952 9.952 0 0 1-3.22 1.272C19.886-.067 17.39-.486 15.37.633 13.349 1.75 12.302 4.13 12.814 6.44 8.737 6.23 4.938 4.237 2.362.961c-1.343 2.397-.657 5.461 1.57 7.003a4.927 4.927 0 0 1-2.296-.658v.066c0 2.498 1.702 4.649 4.069 5.144a4.92 4.92 0 0 1-2.29.09c.665 2.136 2.568 3.599 4.737 3.642a9.963 9.963 0 0 1-7.51 2.173 14.013 14.013 0 0 0 7.775 2.357c3.835.027 7.52-1.537 10.233-4.342 2.712-2.804 4.224-6.616 4.197-10.583 0-.227-.005-.453-.016-.678a10.506 10.506 0 0 0 2.532-2.716 9.878 9.878 0 0 1-2.912.826z" fill="#FFF" fill-rule="nonzero"/>
</svg>
